<svg width="317" height="119" viewBox="0 0 317 119" fill="none" xmlns="http://www.w3.org/2000/svg">
<path d="M57.96 37.8H66.12V105H57.96L39.528 79.656L21 105H12.84V37.8H21L39.528 63.144L57.96 37.8ZM110.738 37.8C114.578 37.864 117.81 39.272 120.434 42.024C123.122 44.776 124.466 48.04 124.466 51.816C124.466 55.72 123.122 59.016 120.434 61.704C117.81 64.392 114.578 65.8 110.738 65.928C116.05 66.056 120.594 68.008 124.369 71.784C128.146 75.56 130.034 80.104 130.034 85.416C130.034 90.792 128.146 95.368 124.369 99.144C120.657 102.92 116.113 104.872 110.738 105H83.3775V37.8H110.738ZM97.8735 85.416C97.8735 87.656 98.6095 89.576 100.082 91.176C101.617 92.712 103.569 93.48 105.937 93.48C108.177 93.48 110.065 92.744 111.602 91.272C113.202 89.736 114.002 87.784 114.002 85.416C114.002 83.176 113.234 81.288 111.697 79.752C110.161 78.152 108.241 77.352 105.937 77.352C103.697 77.352 101.777 78.12 100.177 79.656C98.6415 81.128 97.8735 83.048 97.8735 85.416ZM153.541 105.96C151.173 105.96 149.221 105.192 147.685 103.656C146.213 102.056 145.477 100.136 145.477 97.896C145.477 95.528 146.245 93.608 147.781 92.136C149.381 90.6 151.301 89.832 153.541 89.832C155.845 89.832 157.765 90.632 159.301 92.232C160.837 93.768 161.605 95.656 161.605 97.896C161.605 100.264 160.805 102.216 159.205 103.752C157.669 105.224 155.781 105.96 153.541 105.96ZM213.354 105.864C203.306 105.864 195.05 102.536 188.586 95.88C182.122 89.224 178.89 81.032 178.89 71.304C178.89 61.256 182.218 53 188.874 46.536C195.53 40.072 203.69 36.84 213.354 36.84C223.338 36.84 231.562 40.136 238.026 46.728L213.354 71.304L238.026 95.976C231.306 102.568 223.082 105.864 213.354 105.864ZM287.923 105.864C277.875 105.864 269.619 102.536 263.155 95.88C256.691 89.224 253.459 81.032 253.459 71.304C253.459 61.256 256.787 53 263.443 46.536C270.099 40.072 278.259 36.84 287.923 36.84C297.907 36.84 306.131 40.136 312.595 46.728L287.923 71.304L312.595 95.976C305.875 102.568 297.651 105.864 287.923 105.864Z" fill="#5CC8F2"/>
<path d="M48.96 37.8H57.12V105H48.96L30.528 79.656L12 105H3.84V37.8H12L30.528 63.144L48.96 37.8ZM101.738 37.8C105.578 37.864 108.81 39.272 111.434 42.024C114.122 44.776 115.466 48.04 115.466 51.816C115.466 55.72 114.122 59.016 111.434 61.704C108.81 64.392 105.578 65.8 101.738 65.928C107.05 66.056 111.594 68.008 115.369 71.784C119.146 75.56 121.034 80.104 121.034 85.416C121.034 90.792 119.146 95.368 115.369 99.144C111.657 102.92 107.113 104.872 101.738 105H74.3775V37.8H101.738ZM88.8735 85.416C88.8735 87.656 89.6095 89.576 91.0815 91.176C92.6175 92.712 94.5695 93.48 96.9375 93.48C99.1775 93.48 101.065 92.744 102.602 91.272C104.202 89.736 105.002 87.784 105.002 85.416C105.002 83.176 104.234 81.288 102.697 79.752C101.161 78.152 99.2415 77.352 96.9375 77.352C94.6975 77.352 92.7775 78.12 91.1775 79.656C89.6415 81.128 88.8735 83.048 88.8735 85.416ZM144.541 105.96C142.173 105.96 140.221 105.192 138.685 103.656C137.213 102.056 136.477 100.136 136.477 97.896C136.477 95.528 137.245 93.608 138.781 92.136C140.381 90.6 142.301 89.832 144.541 89.832C146.845 89.832 148.765 90.632 150.301 92.232C151.837 93.768 152.605 95.656 152.605 97.896C152.605 100.264 151.805 102.216 150.205 103.752C148.669 105.224 146.781 105.96 144.541 105.96ZM204.354 105.864C194.306 105.864 186.05 102.536 179.586 95.88C173.122 89.224 169.89 81.032 169.89 71.304C169.89 61.256 173.218 53 179.874 46.536C186.53 40.072 194.69 36.84 204.354 36.84C214.338 36.84 222.562 40.136 229.026 46.728L204.354 71.304L229.026 95.976C222.306 102.568 214.082 105.864 204.354 105.864ZM278.923 105.864C268.875 105.864 260.619 102.536 254.155 95.88C247.691 89.224 244.459 81.032 244.459 71.304C244.459 61.256 247.787 53 254.443 46.536C261.099 40.072 269.259 36.84 278.923 36.84C288.907 36.84 297.131 40.136 303.595 46.728L278.923 71.304L303.595 95.976C296.875 102.568 288.651 105.864 278.923 105.864Z" fill="#F2E205"/>
</svg>
