<svg width="450" height="492" viewBox="0 0 450 492" fill="none" xmlns="http://www.w3.org/2000/svg">
<path d="M20.5 279C22.75 279.083 24.6667 279.917 26.25 281.5C27.8333 283 28.6667 284.875 28.75 287.125V308H69.375V287.125C69.4583 284.792 70.3333 282.875 72 281.375C73.6667 279.792 75.6667 279 78 279C80.25 279.083 82.1667 279.917 83.75 281.5C85.3333 283 86.1667 284.875 86.25 287.125V348.375C85.75 353.375 83 356.083 78 356.5C75.6667 356.5 73.625 355.75 71.875 354.25C70.2083 352.667 69.375 350.708 69.375 348.375V324.75H28.75V348.375C28.25 353.375 25.5 356.083 20.5 356.5C18.1667 356.5 16.125 355.75 14.375 354.25C12.7083 352.667 11.875 350.708 11.875 348.375V287.125C11.9583 284.792 12.8333 282.875 14.5 281.375C16.1667 279.792 18.1667 279 20.5 279Z" fill="url(#paint0_linear_27_68)"/>
<path d="M185.125 321.75C186.708 325.083 187.5 328.458 187.5 331.875C187.5 335.208 186.667 338.542 185 341.875C183.333 345.125 180.625 348.042 176.875 350.625C173.125 353.125 168.333 354.375 162.5 354.375H161.75C161.25 354.458 160.75 354.5 160.25 354.5H110C107.75 354.417 105.833 353.625 104.25 352.125C102.75 350.542 101.958 348.625 101.875 346.375V289.125C101.958 286.875 102.75 285 104.25 283.5C105.833 281.917 107.75 281.083 110 281H153C153.5 281 154 281.042 154.5 281.125H155.25C161.083 281.292 165.875 282.625 169.625 285.125C173.375 287.625 176.083 290.5 177.75 293.75C179.417 296.917 180.25 300.125 180.25 303.375C180.25 306.708 179.458 309.958 177.875 313.125C177.792 313.292 177.708 313.417 177.625 313.5C181.042 315.917 183.542 318.667 185.125 321.75ZM163.25 337.75C164.833 337.833 166.125 337.542 167.125 336.875C168.208 336.208 169 335.458 169.5 334.625C170 333.708 170.25 332.792 170.25 331.875C170.25 331.292 170 330.5 169.5 329.5C169 328.417 168.208 327.542 167.125 326.875C166.125 326.208 164.833 325.833 163.25 325.75H118.75V334.375C118.75 336.625 119.917 337.75 122.25 337.75H163.25ZM160 307.875C161 307.292 161.75 306.625 162.25 305.875C162.75 305.042 163 304.208 163 303.375C163 302.542 162.75 301.75 162.25 301C161.75 300.167 160.958 299.458 159.875 298.875C158.875 298.208 157.583 297.833 156 297.75H122.25C119.917 297.75 118.75 298.875 118.75 301.125V309H156C157.583 308.917 158.917 308.542 160 307.875Z" fill="url(#paint1_linear_27_68)"/>
<path d="M213.25 356.75C209.917 356.75 207.125 355.583 204.875 353.25C202.708 350.917 201.625 348 201.625 344.5C201.625 341 202.708 338.083 204.875 335.75C207.125 333.417 209.917 332.25 213.25 332.25C216.583 332.25 219.375 333.417 221.625 335.75C223.875 338.083 225 341 225 344.5C225 348 223.875 350.917 221.625 353.25C219.375 355.583 216.583 356.75 213.25 356.75Z" fill="url(#paint2_linear_27_68)"/>
<path d="M312 318C312 315.917 310.917 314.833 308.75 314.75H265C263.417 314.833 262.042 315.542 260.875 316.875C259.708 318.125 258.833 319.625 258.25 321.375C257.75 323.042 257.5 324.75 257.5 326.5C257.5 328.167 257.75 329.875 258.25 331.625C258.833 333.292 259.708 334.792 260.875 336.125C262.042 337.375 263.417 338 265 338H297C299.333 338 301.292 338.833 302.875 340.5C304.542 342.083 305.375 344.042 305.375 346.375C305.375 348.708 304.542 350.667 302.875 352.25C301.292 353.917 299.333 354.75 297 354.75H265.5C259.667 354.667 254.833 353.042 251 349.875C247.25 346.625 244.542 343 242.875 339C241.292 334.917 240.5 330.708 240.5 326.375C240.5 322.208 241.333 318.125 243 314.125C244.667 310.042 247.375 306.417 251.125 303.25C254.875 300 260.417 298.25 267.75 298H320.25C322.583 298 324.583 298.792 326.25 300.375C327.917 301.875 328.792 303.792 328.875 306.125V345.625C328.875 352.292 327.958 358.583 326.125 364.5C324.458 369.75 321.708 374.167 317.875 377.75C314.125 381.417 309.333 383.417 303.5 383.75H260.25C258 383.667 256.083 382.833 254.5 381.25C253 379.75 252.208 377.875 252.125 375.625C252.125 373.292 252.875 371.292 254.375 369.625C255.958 367.958 257.917 367.083 260.25 367H299.25C302.417 366.833 305.042 365.625 307.125 363.375C309.208 361.125 310.542 358.5 311.125 355.5C311.708 352.5 312 348.625 312 343.875V318Z" fill="url(#paint3_linear_27_68)"/>
<path d="M415.875 318C415.875 315.917 414.792 314.833 412.625 314.75H368.875C367.292 314.833 365.917 315.542 364.75 316.875C363.583 318.125 362.708 319.625 362.125 321.375C361.625 323.042 361.375 324.75 361.375 326.5C361.375 328.167 361.625 329.875 362.125 331.625C362.708 333.292 363.583 334.792 364.75 336.125C365.917 337.375 367.292 338 368.875 338H400.875C403.208 338 405.167 338.833 406.75 340.5C408.417 342.083 409.25 344.042 409.25 346.375C409.25 348.708 408.417 350.667 406.75 352.25C405.167 353.917 403.208 354.75 400.875 354.75H369.375C363.542 354.667 358.708 353.042 354.875 349.875C351.125 346.625 348.417 343 346.75 339C345.167 334.917 344.375 330.708 344.375 326.375C344.375 322.208 345.208 318.125 346.875 314.125C348.542 310.042 351.25 306.417 355 303.25C358.75 300 364.292 298.25 371.625 298H424.125C426.458 298 428.458 298.792 430.125 300.375C431.792 301.875 432.667 303.792 432.75 306.125V345.625C432.75 352.292 431.833 358.583 430 364.5C428.333 369.75 425.583 374.167 421.75 377.75C418 381.417 413.208 383.417 407.375 383.75H364.125C361.875 383.667 359.958 382.833 358.375 381.25C356.875 379.75 356.083 377.875 356 375.625C356 373.292 356.75 371.292 358.25 369.625C359.833 367.958 361.792 367.083 364.125 367H403.125C406.292 366.833 408.917 365.625 411 363.375C413.083 361.125 414.417 358.5 415 355.5C415.583 352.5 415.875 348.625 415.875 343.875V318Z" fill="url(#paint4_linear_27_68)"/>
<path d="M449.123 245C449.704 238.411 450 231.74 450 225C450 100.736 349.264 0 225 0C100.736 0 0 100.736 0 225C0 231.74 0.296354 238.411 0.876743 245H85.1604C82.4845 238.875 81 232.111 81 225C81 197.386 103.386 175 131 175C158.614 175 181 197.386 181 225C181 232.111 179.516 238.875 176.84 245H275.16C272.484 238.875 271 232.111 271 225C271 197.386 293.386 175 321 175C348.614 175 371 197.386 371 225C371 232.111 369.516 238.875 366.84 245H449.123Z" fill="url(#paint5_linear_27_68)"/>
<path d="M4 408V468.053C4 481.278 14.7215 492 27.9472 492C34.8478 492 41.3059 488.903 46.394 484.241C64.162 467.963 88.0233 458 114.258 458C131.492 458 147.701 462.299 161.832 469.864L162.921 470.448C182.641 481.008 203.166 492 225.5 492C247.834 492 268.359 481.008 288.079 470.447L289.168 469.864C303.299 462.299 319.509 458 336.742 458C362.977 458 386.838 467.963 404.606 484.241C409.694 488.903 416.152 492 423.053 492C436.278 492 447 481.278 447 468.053V408H4Z" fill="url(#paint6_linear_27_68)"/>
<defs>
<linearGradient id="paint0_linear_27_68" x1="225" y1="0" x2="225" y2="492" gradientUnits="userSpaceOnUse">
<stop stop-color="#FF2BD0"/>
<stop offset="1" stop-color="#5884C5"/>
</linearGradient>
<linearGradient id="paint1_linear_27_68" x1="225" y1="0" x2="225" y2="492" gradientUnits="userSpaceOnUse">
<stop stop-color="#FF2BD0"/>
<stop offset="1" stop-color="#5884C5"/>
</linearGradient>
<linearGradient id="paint2_linear_27_68" x1="225" y1="0" x2="225" y2="492" gradientUnits="userSpaceOnUse">
<stop stop-color="#FF2BD0"/>
<stop offset="1" stop-color="#5884C5"/>
</linearGradient>
<linearGradient id="paint3_linear_27_68" x1="225" y1="0" x2="225" y2="492" gradientUnits="userSpaceOnUse">
<stop stop-color="#FF2BD0"/>
<stop offset="1" stop-color="#5884C5"/>
</linearGradient>
<linearGradient id="paint4_linear_27_68" x1="225" y1="0" x2="225" y2="492" gradientUnits="userSpaceOnUse">
<stop stop-color="#FF2BD0"/>
<stop offset="1" stop-color="#5884C5"/>
</linearGradient>
<linearGradient id="paint5_linear_27_68" x1="225" y1="0" x2="225" y2="492" gradientUnits="userSpaceOnUse">
<stop stop-color="#E75050"/>
<stop offset="1" stop-color="#5156D6"/>
</linearGradient>
<linearGradient id="paint6_linear_27_68" x1="225" y1="0" x2="225" y2="492" gradientUnits="userSpaceOnUse">
<stop stop-color="#E75050"/>
<stop offset="1" stop-color="#5156D6"/>
</linearGradient>
</defs>
</svg>
